<mxfile host="65bd71144e" pages="2">
    <diagram id="j_QFnlxjq66Pkcmux0C3" name="encode_SEQUENCE_DIAGRAM">
        <mxGraphModel dx="1177" dy="792" grid="1" gridSize="10" guides="1" tooltips="1" connect="1" arrows="0" fold="1" page="1" pageScale="1" pageWidth="2336" pageHeight="1654" math="0" shadow="0">
            <root>
                <mxCell id="0"/>
                <mxCell id="1" parent="0"/>
                <mxCell id="UXQ8bKzmEw8VLaXMcd9I-1" value="loop" style="shape=umlFrame;whiteSpace=wrap;html=1;" parent="1" vertex="1">
                    <mxGeometry x="1000" y="410" width="240" height="100" as="geometry"/>
                </mxCell>
                <mxCell id="I8YVlJn-_nT1f_S0fezD-1" value=":Client" style="shape=umlLifeline;perimeter=lifelinePerimeter;whiteSpace=wrap;html=1;container=1;dropTarget=0;collapsible=0;recursiveResize=0;outlineConnect=0;portConstraint=eastwest;newEdgeStyle={&quot;edgeStyle&quot;:&quot;elbowEdgeStyle&quot;,&quot;elbow&quot;:&quot;vertical&quot;,&quot;curved&quot;:0,&quot;rounded&quot;:0};fillColor=#dae8fc;strokeColor=#6c8ebf;" parent="1" vertex="1">
                    <mxGeometry x="40" y="80" width="100" height="390" as="geometry"/>
                </mxCell>
                <mxCell id="I8YVlJn-_nT1f_S0fezD-5" value="&lt;i&gt;&lt;font style=&quot;font-size: 9px;&quot;&gt;__init__(k)&lt;/font&gt;&lt;/i&gt;" style="html=1;verticalAlign=bottom;startArrow=oval;endArrow=block;startSize=8;edgeStyle=elbowEdgeStyle;elbow=vertical;curved=0;rounded=0;" parent="I8YVlJn-_nT1f_S0fezD-1" edge="1">
                    <mxGeometry relative="1" as="geometry">
                        <mxPoint x="-20" y="80" as="sourcePoint"/>
                        <mxPoint x="40" y="80.14285714285711" as="targetPoint"/>
                    </mxGeometry>
                </mxCell>
                <mxCell id="I8YVlJn-_nT1f_S0fezD-6" value="" style="html=1;points=[];perimeter=orthogonalPerimeter;outlineConnect=0;targetShapes=umlLifeline;portConstraint=eastwest;newEdgeStyle={&quot;edgeStyle&quot;:&quot;elbowEdgeStyle&quot;,&quot;elbow&quot;:&quot;vertical&quot;,&quot;curved&quot;:0,&quot;rounded&quot;:0};fillColor=#b0e3e6;strokeColor=#0e8088;" parent="I8YVlJn-_nT1f_S0fezD-1" vertex="1">
                    <mxGeometry x="45" y="80" width="10" height="310" as="geometry"/>
                </mxCell>
                <mxCell id="I8YVlJn-_nT1f_S0fezD-11" value="Generate" style="shape=umlLifeline;perimeter=lifelinePerimeter;whiteSpace=wrap;html=1;container=1;dropTarget=0;collapsible=0;recursiveResize=0;outlineConnect=0;portConstraint=eastwest;newEdgeStyle={&quot;edgeStyle&quot;:&quot;elbowEdgeStyle&quot;,&quot;elbow&quot;:&quot;vertical&quot;,&quot;curved&quot;:0,&quot;rounded&quot;:0};fillColor=#fff2cc;strokeColor=#d6b656;" parent="1" vertex="1">
                    <mxGeometry x="180" y="80" width="100" height="260" as="geometry"/>
                </mxCell>
                <mxCell id="I8YVlJn-_nT1f_S0fezD-16" value="" style="html=1;points=[];perimeter=orthogonalPerimeter;outlineConnect=0;targetShapes=umlLifeline;portConstraint=eastwest;newEdgeStyle={&quot;edgeStyle&quot;:&quot;elbowEdgeStyle&quot;,&quot;elbow&quot;:&quot;vertical&quot;,&quot;curved&quot;:0,&quot;rounded&quot;:0};fillColor=#f9f7ed;strokeColor=#36393d;" parent="I8YVlJn-_nT1f_S0fezD-11" vertex="1">
                    <mxGeometry x="45" y="120" width="10" height="80" as="geometry"/>
                </mxCell>
                <mxCell id="I8YVlJn-_nT1f_S0fezD-17" value="&lt;font style=&quot;font-size: 9px;&quot;&gt;&lt;i&gt;1: get_keys(k)&lt;/i&gt;&lt;/font&gt;" style="html=1;verticalAlign=bottom;endArrow=block;edgeStyle=elbowEdgeStyle;elbow=vertical;curved=0;rounded=0;" parent="1" target="I8YVlJn-_nT1f_S0fezD-16" edge="1">
                    <mxGeometry relative="1" as="geometry">
                        <mxPoint x="90" y="200" as="sourcePoint"/>
                    </mxGeometry>
                </mxCell>
                <mxCell id="I8YVlJn-_nT1f_S0fezD-18" value="&lt;i&gt;&lt;font style=&quot;font-size: 8px;&quot;&gt;1.2: return k1, k2, k3, [k4]&lt;/font&gt;&lt;/i&gt;" style="html=1;verticalAlign=bottom;endArrow=open;dashed=1;endSize=8;edgeStyle=elbowEdgeStyle;elbow=vertical;curved=0;rounded=0;" parent="1" source="I8YVlJn-_nT1f_S0fezD-16" edge="1">
                    <mxGeometry relative="1" as="geometry">
                        <mxPoint x="90" y="275" as="targetPoint"/>
                        <Array as="points">
                            <mxPoint x="100" y="275"/>
                        </Array>
                    </mxGeometry>
                </mxCell>
                <mxCell id="I8YVlJn-_nT1f_S0fezD-20" value="&lt;font style=&quot;font-size: 12px;&quot;&gt;: SecretKeyEnc&lt;/font&gt;" style="shape=umlLifeline;perimeter=lifelinePerimeter;whiteSpace=wrap;html=1;container=1;dropTarget=0;collapsible=0;recursiveResize=0;outlineConnect=0;portConstraint=eastwest;newEdgeStyle={&quot;edgeStyle&quot;:&quot;elbowEdgeStyle&quot;,&quot;elbow&quot;:&quot;vertical&quot;,&quot;curved&quot;:0,&quot;rounded&quot;:0};fillColor=#ffe6cc;strokeColor=#d79b00;" parent="1" vertex="1">
                    <mxGeometry x="350" y="80" width="100" height="700" as="geometry"/>
                </mxCell>
                <mxCell id="I8YVlJn-_nT1f_S0fezD-21" value="" style="html=1;points=[];perimeter=orthogonalPerimeter;outlineConnect=0;targetShapes=umlLifeline;portConstraint=eastwest;newEdgeStyle={&quot;edgeStyle&quot;:&quot;elbowEdgeStyle&quot;,&quot;elbow&quot;:&quot;vertical&quot;,&quot;curved&quot;:0,&quot;rounded&quot;:0};fillColor=#eeeeee;strokeColor=#36393d;" parent="I8YVlJn-_nT1f_S0fezD-20" vertex="1">
                    <mxGeometry x="45" y="210" width="10" height="460" as="geometry"/>
                </mxCell>
                <mxCell id="I8YVlJn-_nT1f_S0fezD-23" value="&lt;i&gt;&lt;font style=&quot;font-size: 9px;&quot;&gt;2 : __init__([k4])&lt;/font&gt;&lt;/i&gt;" style="html=1;verticalAlign=bottom;endArrow=block;edgeStyle=elbowEdgeStyle;elbow=vertical;curved=0;rounded=0;" parent="1" source="I8YVlJn-_nT1f_S0fezD-6" target="I8YVlJn-_nT1f_S0fezD-20" edge="1">
                    <mxGeometry x="0.4026" width="80" relative="1" as="geometry">
                        <mxPoint x="100" y="290" as="sourcePoint"/>
                        <mxPoint x="180" y="290" as="targetPoint"/>
                        <Array as="points">
                            <mxPoint x="100" y="290"/>
                        </Array>
                        <mxPoint as="offset"/>
                    </mxGeometry>
                </mxCell>
                <mxCell id="I8YVlJn-_nT1f_S0fezD-24" value=":Encode" style="shape=umlLifeline;perimeter=lifelinePerimeter;whiteSpace=wrap;html=1;container=1;dropTarget=0;collapsible=0;recursiveResize=0;outlineConnect=0;portConstraint=eastwest;newEdgeStyle={&quot;edgeStyle&quot;:&quot;elbowEdgeStyle&quot;,&quot;elbow&quot;:&quot;vertical&quot;,&quot;curved&quot;:0,&quot;rounded&quot;:0};fillColor=#FFCCCC;strokeColor=#36393d;" parent="1" vertex="1">
                    <mxGeometry x="520" y="80" width="100" height="840" as="geometry"/>
                </mxCell>
                <mxCell id="I8YVlJn-_nT1f_S0fezD-27" value="" style="html=1;points=[];perimeter=orthogonalPerimeter;outlineConnect=0;targetShapes=umlLifeline;portConstraint=eastwest;newEdgeStyle={&quot;edgeStyle&quot;:&quot;elbowEdgeStyle&quot;,&quot;elbow&quot;:&quot;vertical&quot;,&quot;curved&quot;:0,&quot;rounded&quot;:0};fillColor=#ffe6cc;strokeColor=#d79b00;" parent="I8YVlJn-_nT1f_S0fezD-24" vertex="1">
                    <mxGeometry x="45" y="250" width="10" height="560" as="geometry"/>
                </mxCell>
                <mxCell id="I8YVlJn-_nT1f_S0fezD-25" value="&lt;i&gt;&lt;font style=&quot;font-size: 9px;&quot;&gt;__init__(k1, k2, k3)&lt;/font&gt;&lt;/i&gt;" style="html=1;verticalAlign=bottom;endArrow=block;edgeStyle=elbowEdgeStyle;elbow=vertical;curved=0;rounded=0;" parent="1" source="I8YVlJn-_nT1f_S0fezD-6" target="I8YVlJn-_nT1f_S0fezD-24" edge="1">
                    <mxGeometry x="-0.787" y="-20" width="80" relative="1" as="geometry">
                        <mxPoint x="100" y="440" as="sourcePoint"/>
                        <mxPoint x="180" y="440" as="targetPoint"/>
                        <Array as="points">
                            <mxPoint x="210" y="360"/>
                        </Array>
                        <mxPoint as="offset"/>
                    </mxGeometry>
                </mxCell>
                <mxCell id="I8YVlJn-_nT1f_S0fezD-12" value="" style="shape=umlDestroy;dashed=0;targetShapes=umlLifeline;" parent="1" vertex="1">
                    <mxGeometry x="220" y="330" width="20" height="20" as="geometry"/>
                </mxCell>
                <mxCell id="I8YVlJn-_nT1f_S0fezD-28" value="&lt;font size=&quot;1&quot;&gt;&lt;i&gt;enc(raw_files_dir, encoded_dir, ske)&lt;/i&gt;&lt;/font&gt;" style="html=1;verticalAlign=bottom;endArrow=block;edgeStyle=elbowEdgeStyle;elbow=vertical;curved=0;rounded=0;" parent="1" edge="1">
                    <mxGeometry x="-0.6211" y="-20" width="80" relative="1" as="geometry">
                        <mxPoint x="90" y="410" as="sourcePoint"/>
                        <mxPoint x="565" y="410" as="targetPoint"/>
                        <Array as="points">
                            <mxPoint x="205" y="410"/>
                        </Array>
                        <mxPoint as="offset"/>
                    </mxGeometry>
                </mxCell>
                <mxCell id="I8YVlJn-_nT1f_S0fezD-29" value="FileTools" style="shape=umlLifeline;perimeter=lifelinePerimeter;whiteSpace=wrap;html=1;container=1;dropTarget=0;collapsible=0;recursiveResize=0;outlineConnect=0;portConstraint=eastwest;newEdgeStyle={&quot;edgeStyle&quot;:&quot;elbowEdgeStyle&quot;,&quot;elbow&quot;:&quot;vertical&quot;,&quot;curved&quot;:0,&quot;rounded&quot;:0};fillColor=#e1d5e7;strokeColor=#9673a6;" parent="1" vertex="1">
                    <mxGeometry x="940" y="80" width="100" height="800" as="geometry"/>
                </mxCell>
                <mxCell id="I8YVlJn-_nT1f_S0fezD-30" value="" style="html=1;points=[];perimeter=orthogonalPerimeter;outlineConnect=0;targetShapes=umlLifeline;portConstraint=eastwest;newEdgeStyle={&quot;edgeStyle&quot;:&quot;elbowEdgeStyle&quot;,&quot;elbow&quot;:&quot;vertical&quot;,&quot;curved&quot;:0,&quot;rounded&quot;:0};fillColor=#E5CCFF;" parent="I8YVlJn-_nT1f_S0fezD-29" vertex="1">
                    <mxGeometry x="45" y="340" width="10" height="90" as="geometry"/>
                </mxCell>
                <mxCell id="I8YVlJn-_nT1f_S0fezD-31" value="PRF" style="shape=umlLifeline;perimeter=lifelinePerimeter;whiteSpace=wrap;html=1;container=1;dropTarget=0;collapsible=0;recursiveResize=0;outlineConnect=0;portConstraint=eastwest;newEdgeStyle={&quot;edgeStyle&quot;:&quot;elbowEdgeStyle&quot;,&quot;elbow&quot;:&quot;vertical&quot;,&quot;curved&quot;:0,&quot;rounded&quot;:0};fillColor=#d5e8d4;strokeColor=#82b366;" parent="1" vertex="1">
                    <mxGeometry x="710" y="80" width="100" height="840" as="geometry"/>
                </mxCell>
                <mxCell id="I8YVlJn-_nT1f_S0fezD-32" value="" style="html=1;points=[];perimeter=orthogonalPerimeter;outlineConnect=0;targetShapes=umlLifeline;portConstraint=eastwest;newEdgeStyle={&quot;edgeStyle&quot;:&quot;elbowEdgeStyle&quot;,&quot;elbow&quot;:&quot;vertical&quot;,&quot;curved&quot;:0,&quot;rounded&quot;:0};fillColor=#CCFF99;" parent="I8YVlJn-_nT1f_S0fezD-31" vertex="1">
                    <mxGeometry x="45" y="360" width="10" height="60" as="geometry"/>
                </mxCell>
                <mxCell id="fRWRyWQBtPgUFVn23K5p-2" value="" style="html=1;verticalAlign=bottom;labelBackgroundColor=none;endArrow=block;endFill=1;entryX=0.5;entryY=0;entryDx=0;entryDy=0;entryPerimeter=0;" parent="1" source="I8YVlJn-_nT1f_S0fezD-27" target="I8YVlJn-_nT1f_S0fezD-32" edge="1">
                    <mxGeometry width="160" relative="1" as="geometry">
                        <mxPoint x="580" y="440" as="sourcePoint"/>
                        <mxPoint x="740" y="440" as="targetPoint"/>
                        <Array as="points">
                            <mxPoint x="590" y="440"/>
                            <mxPoint x="740" y="440"/>
                        </Array>
                    </mxGeometry>
                </mxCell>
                <mxCell id="fRWRyWQBtPgUFVn23K5p-5" value="get_file_hashes" style="text;align=center;verticalAlign=middle;dashed=0;fontSize=9;fontStyle=2" parent="1" vertex="1">
                    <mxGeometry x="595" y="410" width="140" height="40" as="geometry"/>
                </mxCell>
                <mxCell id="fRWRyWQBtPgUFVn23K5p-6" value="" style="html=1;points=[];perimeter=orthogonalPerimeter;fontSize=9;fillColor=#ffcc99;strokeColor=#36393d;" parent="1" vertex="1">
                    <mxGeometry x="570" y="550" width="10" height="20" as="geometry"/>
                </mxCell>
                <mxCell id="fRWRyWQBtPgUFVn23K5p-7" value="find_file_id" style="edgeStyle=orthogonalEdgeStyle;html=1;align=left;spacingLeft=2;endArrow=block;rounded=0;entryX=1;entryY=0;fontSize=9;" parent="1" source="I8YVlJn-_nT1f_S0fezD-27" target="fRWRyWQBtPgUFVn23K5p-6" edge="1">
                    <mxGeometry relative="1" as="geometry">
                        <mxPoint x="580" y="530" as="sourcePoint"/>
                        <Array as="points">
                            <mxPoint x="615" y="530"/>
                            <mxPoint x="615" y="550"/>
                        </Array>
                    </mxGeometry>
                </mxCell>
                <mxCell id="fRWRyWQBtPgUFVn23K5p-9" value="" style="html=1;points=[];perimeter=orthogonalPerimeter;fontSize=9;fillColor=#ffcc99;strokeColor=#36393d;" parent="1" vertex="1">
                    <mxGeometry x="570" y="690" width="10" height="40" as="geometry"/>
                </mxCell>
                <mxCell id="fRWRyWQBtPgUFVn23K5p-10" value="make_lf_lw" style="edgeStyle=orthogonalEdgeStyle;html=1;align=left;spacingLeft=2;endArrow=block;rounded=0;entryX=1;entryY=0;fontSize=9;" parent="1" target="fRWRyWQBtPgUFVn23K5p-9" edge="1">
                    <mxGeometry relative="1" as="geometry">
                        <mxPoint x="575" y="670" as="sourcePoint"/>
                        <Array as="points">
                            <mxPoint x="605" y="670"/>
                        </Array>
                    </mxGeometry>
                </mxCell>
                <mxCell id="UXQ8bKzmEw8VLaXMcd9I-2" value="&lt;font style=&quot;font-size: 12px;&quot;&gt;file system&lt;/font&gt;" style="shape=cylinder3;whiteSpace=wrap;html=1;boundedLbl=1;backgroundOutline=1;size=15;fillColor=#66B2FF;" parent="1" vertex="1">
                    <mxGeometry x="1190" y="60" width="70" height="90" as="geometry"/>
                </mxCell>
                <mxCell id="UXQ8bKzmEw8VLaXMcd9I-3" value="" style="html=1;verticalAlign=bottom;labelBackgroundColor=none;endArrow=block;endFill=1;" parent="1" source="I8YVlJn-_nT1f_S0fezD-30" edge="1">
                    <mxGeometry width="160" relative="1" as="geometry">
                        <mxPoint x="1000" y="450" as="sourcePoint"/>
                        <mxPoint x="1220" y="450" as="targetPoint"/>
                    </mxGeometry>
                </mxCell>
                <mxCell id="UXQ8bKzmEw8VLaXMcd9I-5" value="" style="endArrow=none;dashed=1;html=1;fontSize=12;entryX=0.5;entryY=1;entryDx=0;entryDy=0;entryPerimeter=0;exitX=0.942;exitY=-0.033;exitDx=0;exitDy=0;exitPerimeter=0;startArrow=none;" parent="1" source="5Y4sexQ9BCHgkgQQ5pdm-4" target="UXQ8bKzmEw8VLaXMcd9I-2" edge="1">
                    <mxGeometry width="50" height="50" relative="1" as="geometry">
                        <mxPoint x="1226.4" y="336.7099999999999" as="sourcePoint"/>
                        <mxPoint x="970" y="250" as="targetPoint"/>
                        <Array as="points"/>
                    </mxGeometry>
                </mxCell>
                <mxCell id="UXQ8bKzmEw8VLaXMcd9I-7" value="" style="html=1;points=[];perimeter=orthogonalPerimeter;outlineConnect=0;targetShapes=umlLifeline;portConstraint=eastwest;newEdgeStyle={&quot;edgeStyle&quot;:&quot;elbowEdgeStyle&quot;,&quot;elbow&quot;:&quot;vertical&quot;,&quot;curved&quot;:0,&quot;rounded&quot;:0};fillColor=#cce5ff;strokeColor=#36393d;" parent="1" vertex="1">
                    <mxGeometry x="1220" y="450" width="10" height="50" as="geometry"/>
                </mxCell>
                <mxCell id="UXQ8bKzmEw8VLaXMcd9I-9" value="" style="html=1;verticalAlign=bottom;labelBackgroundColor=none;endArrow=open;endFill=0;dashed=1;fontSize=12;" parent="1" source="UXQ8bKzmEw8VLaXMcd9I-7" edge="1">
                    <mxGeometry width="160" relative="1" as="geometry">
                        <mxPoint x="1160" y="490" as="sourcePoint"/>
                        <mxPoint x="1000" y="490" as="targetPoint"/>
                    </mxGeometry>
                </mxCell>
                <mxCell id="UXQ8bKzmEw8VLaXMcd9I-10" value="" style="html=1;verticalAlign=bottom;labelBackgroundColor=none;endArrow=block;endFill=1;" parent="1" edge="1">
                    <mxGeometry width="160" relative="1" as="geometry">
                        <mxPoint x="765" y="460" as="sourcePoint"/>
                        <mxPoint x="990" y="460" as="targetPoint"/>
                    </mxGeometry>
                </mxCell>
                <mxCell id="UXQ8bKzmEw8VLaXMcd9I-11" value="open, read_chunk" style="text;align=center;verticalAlign=middle;dashed=0;fontSize=9;fontStyle=2" parent="1" vertex="1">
                    <mxGeometry x="830" y="430" width="140" height="40" as="geometry"/>
                </mxCell>
                <mxCell id="UXQ8bKzmEw8VLaXMcd9I-12" value="" style="html=1;points=[];perimeter=orthogonalPerimeter;fontSize=12;fillColor=#E5CCFF;" parent="1" vertex="1">
                    <mxGeometry x="985" y="590" width="10" height="80" as="geometry"/>
                </mxCell>
                <mxCell id="UXQ8bKzmEw8VLaXMcd9I-13" value="" style="html=1;verticalAlign=bottom;labelBackgroundColor=none;endArrow=block;endFill=1;" parent="1" target="UXQ8bKzmEw8VLaXMcd9I-12" edge="1">
                    <mxGeometry width="160" relative="1" as="geometry">
                        <mxPoint x="575" y="610" as="sourcePoint"/>
                        <mxPoint x="755" y="610" as="targetPoint"/>
                    </mxGeometry>
                </mxCell>
                <mxCell id="UXQ8bKzmEw8VLaXMcd9I-14" value="tokenize_text_file" style="text;align=center;verticalAlign=middle;dashed=0;fontSize=9;fontStyle=2" parent="1" vertex="1">
                    <mxGeometry x="595" y="580" width="140" height="40" as="geometry"/>
                </mxCell>
                <mxCell id="UXQ8bKzmEw8VLaXMcd9I-15" value="" style="html=1;verticalAlign=bottom;labelBackgroundColor=none;endArrow=block;endFill=1;dashed=1;fontSize=12;" parent="1" source="I8YVlJn-_nT1f_S0fezD-30" edge="1">
                    <mxGeometry width="160" relative="1" as="geometry">
                        <mxPoint x="980" y="490" as="sourcePoint"/>
                        <mxPoint x="765" y="490" as="targetPoint"/>
                    </mxGeometry>
                </mxCell>
                <mxCell id="UXQ8bKzmEw8VLaXMcd9I-17" value="" style="html=1;verticalAlign=bottom;labelBackgroundColor=none;endArrow=block;endFill=1;dashed=1;fontSize=12;" parent="1" edge="1">
                    <mxGeometry width="160" relative="1" as="geometry">
                        <mxPoint x="750" y="490" as="sourcePoint"/>
                        <mxPoint x="570" y="490" as="targetPoint"/>
                    </mxGeometry>
                </mxCell>
                <mxCell id="UXQ8bKzmEw8VLaXMcd9I-18" value="&lt;i style=&quot;border-color: var(--border-color); font-size: 11px;&quot;&gt;&lt;font style=&quot;border-color: var(--border-color); font-size: 8px;&quot;&gt;1.2: return&amp;nbsp; f_f, g_f, p_f&lt;/font&gt;&lt;/i&gt;" style="edgeLabel;html=1;align=center;verticalAlign=middle;resizable=0;points=[];fontSize=12;" parent="UXQ8bKzmEw8VLaXMcd9I-17" vertex="1" connectable="0">
                    <mxGeometry x="0.0848" y="-1" relative="1" as="geometry">
                        <mxPoint x="13" y="-9" as="offset"/>
                    </mxGeometry>
                </mxCell>
                <mxCell id="UXQ8bKzmEw8VLaXMcd9I-20" value="" style="html=1;verticalAlign=bottom;labelBackgroundColor=none;endArrow=block;endFill=1;dashed=1;fontSize=12;exitX=0.036;exitY=0.617;exitDx=0;exitDy=0;exitPerimeter=0;" parent="1" source="UXQ8bKzmEw8VLaXMcd9I-12" target="I8YVlJn-_nT1f_S0fezD-27" edge="1">
                    <mxGeometry width="160" relative="1" as="geometry">
                        <mxPoint x="880" y="630" as="sourcePoint"/>
                        <mxPoint x="580" y="639" as="targetPoint"/>
                    </mxGeometry>
                </mxCell>
                <mxCell id="UXQ8bKzmEw8VLaXMcd9I-21" value="" style="html=1;verticalAlign=bottom;labelBackgroundColor=none;endArrow=block;endFill=1;fontSize=12;" parent="1" source="I8YVlJn-_nT1f_S0fezD-27" target="I8YVlJn-_nT1f_S0fezD-21" edge="1">
                    <mxGeometry width="160" relative="1" as="geometry">
                        <mxPoint x="560" y="700" as="sourcePoint"/>
                        <mxPoint x="410" y="700" as="targetPoint"/>
                        <Array as="points">
                            <mxPoint x="480" y="660"/>
                        </Array>
                    </mxGeometry>
                </mxCell>
                <mxCell id="UXQ8bKzmEw8VLaXMcd9I-22" value="" style="html=1;verticalAlign=bottom;labelBackgroundColor=none;endArrow=block;endFill=1;dashed=1;fontSize=12;" parent="1" target="I8YVlJn-_nT1f_S0fezD-27" edge="1">
                    <mxGeometry width="160" relative="1" as="geometry">
                        <mxPoint x="410" y="730" as="sourcePoint"/>
                        <mxPoint x="560" y="730" as="targetPoint"/>
                    </mxGeometry>
                </mxCell>
                <mxCell id="UXQ8bKzmEw8VLaXMcd9I-23" value="enc_file" style="text;html=1;align=center;verticalAlign=middle;resizable=0;points=[];autosize=1;strokeColor=none;fillColor=none;fontSize=12;" parent="1" vertex="1">
                    <mxGeometry x="450" y="630" width="60" height="30" as="geometry"/>
                </mxCell>
                <mxCell id="UXQ8bKzmEw8VLaXMcd9I-24" value="" style="html=1;points=[];perimeter=orthogonalPerimeter;outlineConnect=0;targetShapes=umlLifeline;portConstraint=eastwest;newEdgeStyle={&quot;edgeStyle&quot;:&quot;elbowEdgeStyle&quot;,&quot;elbow&quot;:&quot;vertical&quot;,&quot;curved&quot;:0,&quot;rounded&quot;:0};fillColor=#CCFF99;" parent="1" vertex="1">
                    <mxGeometry x="755" y="695" width="10" height="35" as="geometry"/>
                </mxCell>
                <mxCell id="UXQ8bKzmEw8VLaXMcd9I-25" value="" style="html=1;verticalAlign=bottom;labelBackgroundColor=none;endArrow=block;endFill=1;fontSize=12;" parent="1" target="UXQ8bKzmEw8VLaXMcd9I-24" edge="1">
                    <mxGeometry width="160" relative="1" as="geometry">
                        <mxPoint x="580" y="700" as="sourcePoint"/>
                        <mxPoint x="750" y="700" as="targetPoint"/>
                    </mxGeometry>
                </mxCell>
                <mxCell id="UXQ8bKzmEw8VLaXMcd9I-26" value="" style="html=1;verticalAlign=bottom;labelBackgroundColor=none;endArrow=block;endFill=1;dashed=1;fontSize=12;entryX=0.926;entryY=0.863;entryDx=0;entryDy=0;entryPerimeter=0;" parent="1" source="UXQ8bKzmEw8VLaXMcd9I-24" target="fRWRyWQBtPgUFVn23K5p-9" edge="1">
                    <mxGeometry width="160" relative="1" as="geometry">
                        <mxPoint x="750" y="725" as="sourcePoint"/>
                        <mxPoint x="585" y="724.52" as="targetPoint"/>
                    </mxGeometry>
                </mxCell>
                <mxCell id="UXQ8bKzmEw8VLaXMcd9I-27" value="&lt;span style=&quot;font-size: 9px; font-style: italic;&quot;&gt;get_fword_hashes&lt;/span&gt;" style="text;html=1;align=center;verticalAlign=middle;resizable=0;points=[];autosize=1;strokeColor=none;fillColor=none;fontSize=12;" parent="1" vertex="1">
                    <mxGeometry x="650" y="680" width="100" height="30" as="geometry"/>
                </mxCell>
                <mxCell id="5Y4sexQ9BCHgkgQQ5pdm-2" value="" style="html=1;verticalAlign=bottom;labelBackgroundColor=none;endArrow=block;endFill=1;fontSize=12;" parent="1" edge="1">
                    <mxGeometry width="160" relative="1" as="geometry">
                        <mxPoint x="575" y="380" as="sourcePoint"/>
                        <mxPoint x="735" y="380" as="targetPoint"/>
                    </mxGeometry>
                </mxCell>
                <mxCell id="5Y4sexQ9BCHgkgQQ5pdm-3" value="" style="html=1;verticalAlign=bottom;labelBackgroundColor=none;endArrow=block;endFill=1;fontSize=12;entryX=-0.001;entryY=0.485;entryDx=0;entryDy=0;entryPerimeter=0;" parent="1" target="5Y4sexQ9BCHgkgQQ5pdm-4" edge="1">
                    <mxGeometry width="160" relative="1" as="geometry">
                        <mxPoint x="575" y="350" as="sourcePoint"/>
                        <mxPoint x="1210" y="350" as="targetPoint"/>
                    </mxGeometry>
                </mxCell>
                <mxCell id="5Y4sexQ9BCHgkgQQ5pdm-5" value="" style="endArrow=none;dashed=1;html=1;fontSize=12;entryX=0.5;entryY=1;entryDx=0;entryDy=0;entryPerimeter=0;" parent="1" source="UXQ8bKzmEw8VLaXMcd9I-7" target="5Y4sexQ9BCHgkgQQ5pdm-4" edge="1">
                    <mxGeometry width="50" height="50" relative="1" as="geometry">
                        <mxPoint x="1226.08" y="406.69999999999993" as="sourcePoint"/>
                        <mxPoint x="1224.9999999999998" y="150" as="targetPoint"/>
                        <Array as="points"/>
                    </mxGeometry>
                </mxCell>
                <mxCell id="5Y4sexQ9BCHgkgQQ5pdm-4" value="" style="html=1;points=[];perimeter=orthogonalPerimeter;fontSize=12;fillColor=#cce5ff;strokeColor=#36393d;" parent="1" vertex="1">
                    <mxGeometry x="1220" y="320" width="10" height="60" as="geometry"/>
                </mxCell>
                <mxCell id="2" value="" style="html=1;points=[];perimeter=orthogonalPerimeter;fillColor=#ffcc99;strokeColor=#36393d;" parent="1" vertex="1">
                    <mxGeometry x="570" y="790" width="10" height="40" as="geometry"/>
                </mxCell>
                <mxCell id="3" value="make_free_lists" style="edgeStyle=orthogonalEdgeStyle;html=1;align=left;spacingLeft=2;endArrow=block;rounded=0;entryX=1;entryY=0;" parent="1" target="2" edge="1">
                    <mxGeometry relative="1" as="geometry">
                        <mxPoint x="575" y="770" as="sourcePoint"/>
                        <Array as="points">
                            <mxPoint x="605" y="770"/>
                        </Array>
                    </mxGeometry>
                </mxCell>
            </root>
        </mxGraphModel>
    </diagram>
    <diagram id="Vvim7C4IXIFKJzJEcARx" name="make_lists_FLOWCHART">
        <mxGraphModel dx="1177" dy="792" grid="1" gridSize="10" guides="1" tooltips="1" connect="1" arrows="1" fold="1" page="1" pageScale="1" pageWidth="1200" pageHeight="1600" math="0" shadow="0">
            <root>
                <mxCell id="0"/>
                <mxCell id="1" parent="0"/>
                <mxCell id="3_6TO_UbCTpsJgmlknuo-1" value="" style="edgeStyle=none;html=1;fontFamily=Courier New;" parent="1" source="cF-iXFEqOOgUbIHLr9CE-1" target="cF-iXFEqOOgUbIHLr9CE-41" edge="1">
                    <mxGeometry relative="1" as="geometry"/>
                </mxCell>
                <mxCell id="cF-iXFEqOOgUbIHLr9CE-1" value="Enter" style="ellipse;whiteSpace=wrap;fillColor=#f5f5f5;strokeColor=#666666;fontFamily=Courier New;fontSize=11;fontColor=#333333;" parent="1" vertex="1">
                    <mxGeometry x="570" y="50" width="80" height="80" as="geometry"/>
                </mxCell>
                <mxCell id="cF-iXFEqOOgUbIHLr9CE-15" value="" style="edgeStyle=none;fillColor=#ffe6cc;strokeColor=#000000;fontFamily=Courier New;fontSize=11;exitX=0.5;exitY=1;exitDx=0;exitDy=0;" parent="1" source="cF-iXFEqOOgUbIHLr9CE-38" target="cF-iXFEqOOgUbIHLr9CE-6" edge="1">
                    <mxGeometry relative="1" as="geometry">
                        <mxPoint x="610" y="360" as="sourcePoint"/>
                    </mxGeometry>
                </mxCell>
                <mxCell id="cF-iXFEqOOgUbIHLr9CE-20" value="" style="edgeStyle=none;entryX=0.484;entryY=-0.023;entryDx=0;entryDy=0;fillColor=#ffe6cc;strokeColor=#000000;fontFamily=Courier New;fontSize=11;entryPerimeter=0;" parent="1" source="cF-iXFEqOOgUbIHLr9CE-6" target="cF-iXFEqOOgUbIHLr9CE-9" edge="1">
                    <mxGeometry relative="1" as="geometry">
                        <mxPoint x="430" y="570" as="targetPoint"/>
                        <Array as="points">
                            <mxPoint x="430" y="535"/>
                        </Array>
                    </mxGeometry>
                </mxCell>
                <mxCell id="cF-iXFEqOOgUbIHLr9CE-24" value="" style="edgeStyle=none;entryX=0.5;entryY=0;entryDx=0;entryDy=0;fillColor=#ffe6cc;strokeColor=#000000;fontFamily=Courier New;fontSize=11;" parent="1" source="cF-iXFEqOOgUbIHLr9CE-6" target="cF-iXFEqOOgUbIHLr9CE-8" edge="1">
                    <mxGeometry relative="1" as="geometry">
                        <mxPoint x="790" y="560" as="targetPoint"/>
                        <Array as="points">
                            <mxPoint x="790" y="535"/>
                        </Array>
                    </mxGeometry>
                </mxCell>
                <mxCell id="cF-iXFEqOOgUbIHLr9CE-29" value="" style="edgeStyle=none;fillColor=#ffe6cc;strokeColor=#000000;fontFamily=Courier New;fontSize=11;" parent="1" source="cF-iXFEqOOgUbIHLr9CE-7" target="cF-iXFEqOOgUbIHLr9CE-10" edge="1">
                    <mxGeometry relative="1" as="geometry"/>
                </mxCell>
                <mxCell id="cF-iXFEqOOgUbIHLr9CE-7" value="" style="rounded=1;whiteSpace=wrap;fillColor=#ffe6cc;strokeColor=#d79b00;fontFamily=Courier New;fontSize=11;fontColor=#666600;" parent="1" vertex="1">
                    <mxGeometry x="535" y="660" width="150" height="80" as="geometry"/>
                </mxCell>
                <mxCell id="cF-iXFEqOOgUbIHLr9CE-8" value="" style="rounded=1;whiteSpace=wrap;fillColor=#ffe6cc;strokeColor=#d79b00;fontFamily=Courier New;fontSize=11;fontColor=#3399FF;" parent="1" vertex="1">
                    <mxGeometry x="720" y="590" width="140" height="60" as="geometry"/>
                </mxCell>
                <mxCell id="cF-iXFEqOOgUbIHLr9CE-27" value="" style="edgeStyle=none;entryX=0;entryY=0.5;entryDx=0;entryDy=0;fillColor=#ffe6cc;strokeColor=#000000;fontFamily=Courier New;fontSize=11;" parent="1" source="cF-iXFEqOOgUbIHLr9CE-9" target="cF-iXFEqOOgUbIHLr9CE-7" edge="1">
                    <mxGeometry relative="1" as="geometry">
                        <mxPoint x="530" y="700" as="targetPoint"/>
                        <Array as="points">
                            <mxPoint x="430" y="700"/>
                        </Array>
                    </mxGeometry>
                </mxCell>
                <mxCell id="cF-iXFEqOOgUbIHLr9CE-9" value="" style="rounded=1;whiteSpace=wrap;fillColor=#ffe6cc;strokeColor=#d79b00;fontFamily=Courier New;fontSize=11;" parent="1" vertex="1">
                    <mxGeometry x="350" y="575" width="165" height="110" as="geometry"/>
                </mxCell>
                <mxCell id="cF-iXFEqOOgUbIHLr9CE-30" value="" style="edgeStyle=none;fillColor=#ffe6cc;strokeColor=#000000;fontFamily=Courier New;fontSize=11;" parent="1" source="cF-iXFEqOOgUbIHLr9CE-10" target="cF-iXFEqOOgUbIHLr9CE-11" edge="1">
                    <mxGeometry relative="1" as="geometry"/>
                </mxCell>
                <mxCell id="cF-iXFEqOOgUbIHLr9CE-10" value="" style="rounded=1;whiteSpace=wrap;fillColor=#ffe6cc;strokeColor=#d79b00;fontFamily=Courier New;fontSize=11;fontColor=#994C00;" parent="1" vertex="1">
                    <mxGeometry x="550" y="770" width="120" height="60" as="geometry"/>
                </mxCell>
                <mxCell id="cF-iXFEqOOgUbIHLr9CE-31" value="" style="edgeStyle=none;fillColor=#ffe6cc;strokeColor=#000000;fontFamily=Courier New;fontSize=11;" parent="1" source="cF-iXFEqOOgUbIHLr9CE-11" target="cF-iXFEqOOgUbIHLr9CE-13" edge="1">
                    <mxGeometry relative="1" as="geometry"/>
                </mxCell>
                <mxCell id="3_6TO_UbCTpsJgmlknuo-13" value="" style="edgeStyle=none;html=1;strokeColor=#000000;fontColor=#000000;exitX=0.979;exitY=0.51;exitDx=0;exitDy=0;exitPerimeter=0;entryX=0.997;entryY=0.108;entryDx=0;entryDy=0;entryPerimeter=0;fontFamily=Courier New;" parent="1" source="cF-iXFEqOOgUbIHLr9CE-11" target="cF-iXFEqOOgUbIHLr9CE-12" edge="1">
                    <mxGeometry relative="1" as="geometry">
                        <mxPoint x="820" y="1200" as="targetPoint"/>
                        <Array as="points">
                            <mxPoint x="730" y="930"/>
                            <mxPoint x="730" y="1176"/>
                        </Array>
                    </mxGeometry>
                </mxCell>
                <mxCell id="cF-iXFEqOOgUbIHLr9CE-11" value="" style="rhombus;whiteSpace=wrap;fillColor=#fff2cc;strokeColor=#d6b656;fontFamily=Courier New;fontSize=11;" parent="1" vertex="1">
                    <mxGeometry x="530" y="890" width="160" height="80" as="geometry"/>
                </mxCell>
                <mxCell id="3_6TO_UbCTpsJgmlknuo-17" value="" style="edgeStyle=none;html=1;strokeColor=#000000;fontColor=#000000;fontFamily=Courier New;" parent="1" source="cF-iXFEqOOgUbIHLr9CE-12" target="3_6TO_UbCTpsJgmlknuo-16" edge="1">
                    <mxGeometry relative="1" as="geometry"/>
                </mxCell>
                <mxCell id="cF-iXFEqOOgUbIHLr9CE-12" value="" style="rounded=1;whiteSpace=wrap;fillColor=#ffe6cc;strokeColor=#d79b00;fontFamily=Courier New;fontSize=11;" parent="1" vertex="1">
                    <mxGeometry x="550" y="1170" width="120" height="60" as="geometry"/>
                </mxCell>
                <mxCell id="cF-iXFEqOOgUbIHLr9CE-32" value="" style="edgeStyle=none;fillColor=#ffe6cc;strokeColor=#000000;fontFamily=Courier New;fontSize=11;" parent="1" source="cF-iXFEqOOgUbIHLr9CE-13" target="cF-iXFEqOOgUbIHLr9CE-12" edge="1">
                    <mxGeometry relative="1" as="geometry"/>
                </mxCell>
                <mxCell id="cF-iXFEqOOgUbIHLr9CE-13" value="" style="rounded=1;whiteSpace=wrap;fillColor=#ffe6cc;strokeColor=#d79b00;fontFamily=Courier New;fontSize=11;" parent="1" vertex="1">
                    <mxGeometry x="540" y="1030" width="140" height="100" as="geometry"/>
                </mxCell>
                <mxCell id="cF-iXFEqOOgUbIHLr9CE-28" value="" style="edgeStyle=none;entryX=1;entryY=0.5;entryDx=0;entryDy=0;exitX=0.5;exitY=1;exitDx=0;exitDy=0;fillColor=#ffe6cc;strokeColor=#000000;fontFamily=Courier New;fontSize=11;" parent="1" source="cF-iXFEqOOgUbIHLr9CE-8" target="cF-iXFEqOOgUbIHLr9CE-7" edge="1">
                    <mxGeometry relative="1" as="geometry">
                        <mxPoint x="760" y="660" as="sourcePoint"/>
                        <mxPoint x="880" y="720" as="targetPoint"/>
                        <Array as="points">
                            <mxPoint x="790" y="700"/>
                        </Array>
                    </mxGeometry>
                </mxCell>
                <mxCell id="cF-iXFEqOOgUbIHLr9CE-6" value="" style="rhombus;whiteSpace=wrap;fillColor=#fff2cc;strokeColor=#d6b656;fontFamily=Courier New;fontSize=11;" parent="1" vertex="1">
                    <mxGeometry x="550" y="480" width="120" height="110" as="geometry"/>
                </mxCell>
                <mxCell id="cF-iXFEqOOgUbIHLr9CE-36" value="Token was seen before?" style="text;strokeColor=none;fillColor=none;align=center;verticalAlign=middle;whiteSpace=wrap;rounded=0;fontFamily=Courier New;fontSize=11;" parent="1" vertex="1">
                    <mxGeometry x="572.5" y="514.375" width="75" height="41.25" as="geometry"/>
                </mxCell>
                <mxCell id="cF-iXFEqOOgUbIHLr9CE-38" value="" style="rounded=1;whiteSpace=wrap;html=1;fontFamily=Courier New;fontSize=11;fillColor=#ffe6cc;strokeColor=#d79b00;" parent="1" vertex="1">
                    <mxGeometry x="500" y="290" width="220" height="120" as="geometry"/>
                </mxCell>
                <mxCell id="cF-iXFEqOOgUbIHLr9CE-39" value="&lt;font color=&quot;#3399ff&quot;&gt;next_s_addr&lt;/font&gt; = &lt;b&gt;zero&lt;/b&gt;&lt;br&gt;&lt;font color=&quot;#3399ff&quot;&gt;next_d_addr&lt;/font&gt; := &lt;b&gt;zero&lt;/b&gt;" style="text;html=1;strokeColor=none;fillColor=none;align=center;verticalAlign=middle;whiteSpace=wrap;rounded=0;fontFamily=Courier New;fontSize=11;fontColor=none;" parent="1" vertex="1">
                    <mxGeometry x="725" y="600" width="130" height="40" as="geometry"/>
                </mxCell>
                <mxCell id="cF-iXFEqOOgUbIHLr9CE-40" value="extract &lt;font color=&quot;#3399ff&quot;&gt;next_s_addr&lt;/font&gt; and &lt;font color=&quot;#3399ff&quot;&gt;next_d_addr&lt;/font&gt; by retrieving relavent lw head at search_table under search key f_w" style="text;html=1;strokeColor=none;fillColor=none;align=center;verticalAlign=middle;whiteSpace=wrap;rounded=0;fontFamily=Courier New;fontSize=11;fontColor=none;" parent="1" vertex="1">
                    <mxGeometry x="365" y="610" width="130" height="40" as="geometry"/>
                </mxCell>
                <mxCell id="3_6TO_UbCTpsJgmlknuo-2" value="" style="edgeStyle=none;html=1;fontFamily=Courier New;" parent="1" source="cF-iXFEqOOgUbIHLr9CE-41" edge="1">
                    <mxGeometry relative="1" as="geometry">
                        <mxPoint x="610" y="290" as="targetPoint"/>
                        <Array as="points">
                            <mxPoint x="610" y="290"/>
                        </Array>
                    </mxGeometry>
                </mxCell>
                <mxCell id="cF-iXFEqOOgUbIHLr9CE-41" value="create a new lf&amp;nbsp;&lt;br&gt;&lt;font color=&quot;#3399ff&quot;&gt;next_lf_addr&lt;/font&gt; := &lt;b&gt;zero&lt;/b&gt;" style="rounded=1;whiteSpace=wrap;html=1;fontFamily=Courier New;fontSize=11;fillColor=#ffe6cc;strokeColor=#d79b00;" parent="1" vertex="1">
                    <mxGeometry x="535" y="180" width="150" height="50" as="geometry"/>
                </mxCell>
                <mxCell id="cF-iXFEqOOgUbIHLr9CE-42" value="&lt;font color=&quot;#3399ff&quot;&gt;next_d_addr&lt;/font&gt; != &lt;b&gt;zero&lt;/b&gt;" style="text;html=1;strokeColor=none;fillColor=none;align=center;verticalAlign=middle;whiteSpace=wrap;rounded=0;fontFamily=Courier New;fontSize=11;fontColor=#000000;" parent="1" vertex="1">
                    <mxGeometry x="540" y="915" width="140" height="30" as="geometry"/>
                </mxCell>
                <mxCell id="3_6TO_UbCTpsJgmlknuo-3" value="&lt;font color=&quot;#4d9900&quot;&gt;True&lt;/font&gt;" style="text;html=1;align=center;verticalAlign=middle;resizable=0;points=[];autosize=1;strokeColor=none;fillColor=none;fontColor=#3399FF;fontFamily=Courier New;" parent="1" vertex="1">
                    <mxGeometry x="465" y="505" width="50" height="30" as="geometry"/>
                </mxCell>
                <mxCell id="3_6TO_UbCTpsJgmlknuo-4" value="&lt;font color=&quot;#cc0000&quot;&gt;False&lt;/font&gt;" style="text;html=1;align=center;verticalAlign=middle;resizable=0;points=[];autosize=1;strokeColor=none;fillColor=none;fontColor=#4D9900;fontFamily=Courier New;" parent="1" vertex="1">
                    <mxGeometry x="695" y="505" width="60" height="30" as="geometry"/>
                </mxCell>
                <mxCell id="3_6TO_UbCTpsJgmlknuo-5" value="&lt;span style=&quot;font-size: 11px;&quot;&gt;s_addr&lt;font color=&quot;#000000&quot;&gt; := &lt;/font&gt;&lt;font color=&quot;#994c00&quot;&gt;find_avaible_adrr&lt;/font&gt;&lt;/span&gt;&lt;br style=&quot;border-color: var(--border-color); padding: 0px; margin: 0px; font-size: 11px;&quot;&gt;&lt;span style=&quot;font-size: 11px;&quot;&gt;d_addr&lt;/span&gt;&lt;span style=&quot;color: rgb(0, 0, 0); font-size: 11px;&quot;&gt; := &lt;/span&gt;&lt;span style=&quot;font-size: 11px;&quot;&gt;&lt;font color=&quot;#994c00&quot;&gt;find_avaible_adrr&lt;/font&gt;&lt;/span&gt;&lt;br style=&quot;border-color: var(--border-color); padding: 0px; margin: 0px; font-size: 11px;&quot;&gt;&lt;span style=&quot;font-size: 11px;&quot;&gt;prev_s_addr&lt;/span&gt;&lt;span style=&quot;color: rgb(0, 0, 0); font-size: 11px;&quot;&gt; := &lt;b&gt;zero&lt;/b&gt;&lt;/span&gt;&lt;br style=&quot;border-color: var(--border-color); padding: 0px; margin: 0px; font-size: 11px;&quot;&gt;&lt;span style=&quot;font-size: 11px;&quot;&gt;prev_d_addr&lt;/span&gt;&lt;span style=&quot;color: rgb(0, 0, 0); font-size: 11px;&quot;&gt; := &lt;b&gt;zero&lt;/b&gt;&lt;/span&gt;" style="text;html=1;align=center;verticalAlign=middle;resizable=0;points=[];autosize=1;strokeColor=none;fillColor=none;fontColor=#3399FF;fontFamily=Courier New;" parent="1" vertex="1">
                    <mxGeometry x="510" y="315" width="200" height="70" as="geometry"/>
                </mxCell>
                <mxCell id="3_6TO_UbCTpsJgmlknuo-7" value="&lt;span style=&quot;font-size: 11px;&quot;&gt;&lt;font color=&quot;#994c00&quot;&gt;make_search_node&lt;/font&gt;&lt;br&gt;&lt;font color=&quot;#000000&quot;&gt;&amp;nbsp;and insert it at the &lt;/font&gt;&lt;br&gt;&lt;font color=&quot;#000000&quot;&gt;top of respective lw&lt;/font&gt;&lt;/span&gt;" style="text;html=1;align=center;verticalAlign=middle;resizable=0;points=[];autosize=1;strokeColor=none;fillColor=none;fontColor=#666600;fontFamily=Courier New;" parent="1" vertex="1">
                    <mxGeometry x="530" y="670" width="160" height="60" as="geometry"/>
                </mxCell>
                <mxCell id="3_6TO_UbCTpsJgmlknuo-8" value="&lt;span style=&quot;font-size: 11px;&quot;&gt;make_dual_node &lt;br&gt;&lt;font color=&quot;#000000&quot;&gt;and insert it at &lt;/font&gt;&lt;br&gt;&lt;font color=&quot;#000000&quot;&gt;the top of lf&lt;/font&gt;&lt;/span&gt;" style="text;html=1;align=center;verticalAlign=middle;resizable=0;points=[];autosize=1;strokeColor=none;fillColor=none;fontColor=#994C00;fontFamily=Courier New;" parent="1" vertex="1">
                    <mxGeometry x="545" y="770" width="130" height="60" as="geometry"/>
                </mxCell>
                <mxCell id="3_6TO_UbCTpsJgmlknuo-9" value="&lt;font color=&quot;#4d9900&quot;&gt;True&lt;/font&gt;" style="text;html=1;align=center;verticalAlign=middle;resizable=0;points=[];autosize=1;strokeColor=none;fillColor=none;fontColor=#3399FF;fontFamily=Courier New;" parent="1" vertex="1">
                    <mxGeometry x="610" y="840" width="50" height="30" as="geometry"/>
                </mxCell>
                <mxCell id="3_6TO_UbCTpsJgmlknuo-10" value="update_dual_node's&lt;br&gt;&lt;font color=&quot;#000000&quot;&gt;prev_addrs&lt;/font&gt;&amp;nbsp;&lt;font color=&quot;#000000&quot;&gt;with &lt;br&gt;values related to the &lt;br&gt;newly inserted lw head&lt;/font&gt;" style="text;html=1;align=center;verticalAlign=middle;resizable=0;points=[];autosize=1;strokeColor=none;fillColor=none;fontColor=#994C00;fontFamily=Courier New;" parent="1" vertex="1">
                    <mxGeometry x="520" y="1045" width="180" height="70" as="geometry"/>
                </mxCell>
                <mxCell id="3_6TO_UbCTpsJgmlknuo-14" value="update search table&amp;nbsp;" style="text;html=1;align=center;verticalAlign=middle;resizable=0;points=[];autosize=1;strokeColor=none;fillColor=none;fontColor=#000000;fontFamily=Courier New;" parent="1" vertex="1">
                    <mxGeometry x="525" y="1185" width="170" height="30" as="geometry"/>
                </mxCell>
                <mxCell id="3_6TO_UbCTpsJgmlknuo-15" value="&lt;font color=&quot;#cc0000&quot;&gt;False&lt;/font&gt;" style="text;html=1;align=center;verticalAlign=middle;resizable=0;points=[];autosize=1;strokeColor=none;fillColor=none;fontColor=#4D9900;fontFamily=Courier New;" parent="1" vertex="1">
                    <mxGeometry x="725" y="1030" width="60" height="30" as="geometry"/>
                </mxCell>
                <mxCell id="3_6TO_UbCTpsJgmlknuo-22" value="" style="edgeStyle=none;html=1;strokeColor=#000000;fontColor=#000000;fontFamily=Courier New;" parent="1" source="3_6TO_UbCTpsJgmlknuo-16" target="3_6TO_UbCTpsJgmlknuo-21" edge="1">
                    <mxGeometry relative="1" as="geometry"/>
                </mxCell>
                <mxCell id="3_6TO_UbCTpsJgmlknuo-16" value="" style="whiteSpace=wrap;html=1;fontSize=11;fontFamily=Courier New;fillColor=#ffe6cc;strokeColor=#d79b00;rounded=1;" parent="1" vertex="1">
                    <mxGeometry x="540" y="1265" width="140" height="60" as="geometry"/>
                </mxCell>
                <mxCell id="3_6TO_UbCTpsJgmlknuo-18" value="&lt;font color=&quot;#3399ff&quot;&gt;next_lf_addr &lt;/font&gt;:=&lt;font color=&quot;#3399ff&quot;&gt; d_addr&lt;/font&gt;" style="text;html=1;align=center;verticalAlign=middle;resizable=0;points=[];autosize=1;strokeColor=none;fillColor=none;fontColor=#000000;fontFamily=Courier New;" parent="1" vertex="1">
                    <mxGeometry x="520" y="1280" width="180" height="30" as="geometry"/>
                </mxCell>
                <mxCell id="3_6TO_UbCTpsJgmlknuo-25" value="" style="edgeStyle=none;html=1;strokeColor=#000000;fontColor=#000000;fontFamily=Courier New;" parent="1" source="3_6TO_UbCTpsJgmlknuo-21" target="3_6TO_UbCTpsJgmlknuo-24" edge="1">
                    <mxGeometry relative="1" as="geometry"/>
                </mxCell>
                <mxCell id="3_6TO_UbCTpsJgmlknuo-21" value="" style="rhombus;whiteSpace=wrap;html=1;fontSize=11;fontFamily=Courier New;fillColor=#fff2cc;strokeColor=#d6b656;rounded=1;" parent="1" vertex="1">
                    <mxGeometry x="530" y="1360" width="160" height="80" as="geometry"/>
                </mxCell>
                <mxCell id="3_6TO_UbCTpsJgmlknuo-23" value="last Token in file?" style="text;html=1;align=center;verticalAlign=middle;resizable=0;points=[];autosize=1;strokeColor=none;fillColor=none;fontColor=#000000;fontFamily=Courier New;" parent="1" vertex="1">
                    <mxGeometry x="530" y="1385" width="160" height="30" as="geometry"/>
                </mxCell>
                <mxCell id="3_6TO_UbCTpsJgmlknuo-24" value="EXIT" style="ellipse;whiteSpace=wrap;html=1;fontSize=11;fontFamily=Courier New;rounded=1;fillColor=#f5f5f5;fontColor=#333333;strokeColor=#666666;" parent="1" vertex="1">
                    <mxGeometry x="567.5" y="1480" width="80" height="80" as="geometry"/>
                </mxCell>
                <mxCell id="3_6TO_UbCTpsJgmlknuo-26" value="&lt;font color=&quot;#4d9900&quot;&gt;True&lt;/font&gt;" style="text;html=1;align=center;verticalAlign=middle;resizable=0;points=[];autosize=1;strokeColor=none;fillColor=none;fontColor=#3399FF;fontFamily=Courier New;" parent="1" vertex="1">
                    <mxGeometry x="560" y="1440" width="50" height="30" as="geometry"/>
                </mxCell>
                <mxCell id="3_6TO_UbCTpsJgmlknuo-28" value="" style="edgeStyle=none;orthogonalLoop=1;jettySize=auto;html=1;strokeColor=#000000;fontColor=#000000;entryX=1;entryY=0.5;entryDx=0;entryDy=0;exitX=1;exitY=0.5;exitDx=0;exitDy=0;fontFamily=Courier New;" parent="1" source="3_6TO_UbCTpsJgmlknuo-24" target="cF-iXFEqOOgUbIHLr9CE-38" edge="1">
                    <mxGeometry width="100" relative="1" as="geometry">
                        <mxPoint x="770" y="1639.73" as="sourcePoint"/>
                        <mxPoint x="730" y="350" as="targetPoint"/>
                        <Array as="points">
                            <mxPoint x="900" y="1520"/>
                            <mxPoint x="900" y="350"/>
                        </Array>
                    </mxGeometry>
                </mxCell>
                <mxCell id="3_6TO_UbCTpsJgmlknuo-29" value="&lt;font color=&quot;#cc0000&quot;&gt;False&lt;/font&gt;" style="text;html=1;align=center;verticalAlign=middle;resizable=0;points=[];autosize=1;strokeColor=none;fillColor=none;fontColor=#4D9900;fontFamily=Courier New;" parent="1" vertex="1">
                    <mxGeometry x="655" y="1480" width="60" height="30" as="geometry"/>
                </mxCell>
            </root>
        </mxGraphModel>
    </diagram>
    <diagram id="-24M1rPG_--DNZbLvjN1" name="make_free_lists_FLOWCHART">
        <mxGraphModel dx="1353" dy="792" grid="1" gridSize="10" guides="1" tooltips="1" connect="1" arrows="1" fold="1" page="1" pageScale="1" pageWidth="1200" pageHeight="1600" math="0" shadow="0">
            <root>
                <mxCell id="0"/>
                <mxCell id="1" parent="0"/>
                <mxCell id="Ri2_48MKPB4wvCTrUYRL-3" value="" style="edgeStyle=none;html=1;strokeColor=#000000;fontColor=#000000;" edge="1" parent="1" source="Ri2_48MKPB4wvCTrUYRL-1" target="Ri2_48MKPB4wvCTrUYRL-2">
                    <mxGeometry relative="1" as="geometry"/>
                </mxCell>
                <mxCell id="Ri2_48MKPB4wvCTrUYRL-1" value="" style="ellipse;whiteSpace=wrap;html=1;fontColor=#000000;" vertex="1" parent="1">
                    <mxGeometry x="550" y="40" width="80" height="80" as="geometry"/>
                </mxCell>
                <mxCell id="Ri2_48MKPB4wvCTrUYRL-2" value="" style="rhombus;whiteSpace=wrap;html=1;fontColor=#000000;" vertex="1" parent="1">
                    <mxGeometry x="550" y="170" width="80" height="80" as="geometry"/>
                </mxCell>
            </root>
        </mxGraphModel>
    </diagram>
</mxfile>